<svg width="28" height="32" viewBox="0 0 28 32" fill="none" xmlns="http://www.w3.org/2000/svg">
<path fill-rule="evenodd" clip-rule="evenodd" d="M0 2.4616C0 1.10862 1.2609 6.5088e-05 2.8 6.5088e-05H20.3C20.5246 -0.0028035 20.7372 0.0892916 20.8715 0.247661L20.8824 0.25968L27.7211 6.26928C27.8732 6.37018 27.9719 6.52122 27.9945 6.68755C27.9955 6.69395 27.9965 6.70036 27.9972 6.70678C27.9987 6.72117 27.9996 6.7356 28 6.75005V6.75967V6.76928V29.5385C28 30.8916 26.7391 32 25.2 32H2.8C1.2609 32 0 30.8916 0 29.5385V2.4616ZM19.6001 1.23079H2.80008C2.01236 1.23079 1.40008 1.76913 1.40008 2.46156V29.5384C1.40008 30.231 2.01236 30.7692 2.80008 30.7692H25.2001C25.9878 30.7692 26.6001 30.231 26.6001 29.5384V7.38463H22.4001C20.861 7.38463 19.6001 6.2762 19.6001 4.92309V1.23079ZM21 2.10103L25.6101 6.15391H22.4C21.6123 6.15391 21 5.6157 21 4.92314V2.10103ZM5.57541 14.1851C5.55578 13.8452 5.85326 13.5557 6.23986 13.5385C6.26354 13.5374 6.28727 13.5374 6.31095 13.5385H15.5859H21.7C21.9525 13.5353 22.1873 13.6519 22.3145 13.8436C22.4418 14.0353 22.4418 14.2724 22.3145 14.4641C22.1873 14.6558 21.9525 14.7724 21.7 14.7692H15.5859H6.31095C5.92436 14.7865 5.59504 14.525 5.57541 14.1851ZM6.23986 16C5.85326 16.0173 5.55578 16.3068 5.57541 16.6467C5.59504 16.9865 5.92436 17.248 6.31095 17.2308H15.5859H21.7C21.9525 17.2339 22.1873 17.1173 22.3145 16.9256C22.4418 16.7339 22.4418 16.4969 22.3145 16.3052C22.1873 16.1135 21.9525 15.9969 21.7 16H15.5859H6.31095C6.28727 15.999 6.26354 15.999 6.23986 16ZM5.57541 19.1082C5.55578 18.7683 5.85326 18.4788 6.23986 18.4615C6.26354 18.4605 6.28727 18.4605 6.31095 18.4615H15.5859H21.7C21.9525 18.4584 22.1873 18.575 22.3145 18.7667C22.4418 18.9584 22.4418 19.1955 22.3145 19.3872C22.1873 19.5788 21.9525 19.6954 21.7 19.6923H15.5859H6.31095C5.92436 19.7096 5.59504 19.448 5.57541 19.1082ZM6.23986 20.9231C5.85326 20.9403 5.55578 21.2299 5.57541 21.5697C5.59504 21.9096 5.92436 22.1711 6.31095 22.1539H12.425H16.1C16.3525 22.157 16.5873 22.0404 16.7145 21.8487C16.8418 21.657 16.8418 21.4199 16.7145 21.2282C16.5873 21.0365 16.3525 20.9199 16.1 20.9231H12.425H6.31095C6.28727 20.922 6.26354 20.922 6.23986 20.9231ZM18.1644 21.5697C18.1448 21.2299 18.4423 20.9403 18.8289 20.9231C18.8526 20.922 18.8763 20.922 18.9 20.9231C19.1524 20.9199 19.3872 21.0365 19.5145 21.2282C19.6418 21.4199 19.6418 21.657 19.5145 21.8487C19.3872 22.0404 19.1524 22.157 18.9 22.1539C18.5134 22.1711 18.184 21.9096 18.1644 21.5697Z" fill="#939598"/>
</svg>
