<svg width="34" height="36" viewBox="0 0 34 36" fill="none" xmlns="http://www.w3.org/2000/svg">
<path d="M29 -1.33221e-05H5C4.66402 -0.00314198 4.32871 0.0303896 4 0.0999866C2.87064 0.330517 1.8556 0.944168 1.12669 1.83708C0.397783 2.73 -0.000235151 3.84733 1.04228e-07 4.99999C1.04228e-07 5.53042 0.210714 6.03913 0.585786 6.4142C0.960859 6.78927 1.46957 6.99999 2 6.99999H8V22.35C8.6409 22.1166 9.31794 21.9981 10 22C10.8383 22.0008 11.6671 22.1773 12.433 22.5181C13.1989 22.8588 13.8849 23.3563 14.4467 23.9784C15.0086 24.6005 15.4339 25.3335 15.6951 26.13C15.9564 26.9265 16.0478 27.7689 15.9636 28.603C15.8793 29.437 15.6213 30.2441 15.206 30.9723C14.7907 31.7005 14.2275 32.3336 13.5525 32.8308C12.8776 33.328 12.106 33.6782 11.2874 33.8589C10.4689 34.0396 9.62151 34.0468 8.8 33.88C8.9798 34.0763 9.18494 34.2478 9.41 34.39C10.34 35 10.78 36 12.33 36C14.5 36 14.5 34 16.66 34C18.82 34 18.83 36 20.99 36C23.15 36 23.16 34 25.33 34C27.5 34 27.49 36 29.66 36C31.22 36 31.66 35 32.59 34.39C33.0223 34.1198 33.3787 33.7438 33.6254 33.2977C33.8721 32.8515 34.001 32.3498 34 31.84V4.99999C34 4.34338 33.8707 3.6932 33.6194 3.08657C33.3681 2.47994 32.9998 1.92875 32.5355 1.46445C32.0712 1.00016 31.52 0.631863 30.9134 0.380589C30.3068 0.129316 29.6566 -1.33221e-05 29 -1.33221e-05ZM2 4.99999C1.9993 4.33967 2.21648 3.69757 2.61786 3.17324C3.01924 2.64892 3.58239 2.27167 4.22 2.09999H4.43C4.61641 2.04872 4.80727 2.01524 5 1.99999C5.79395 1.99803 6.5563 2.31088 7.12 2.86999C7.53346 3.29149 7.81795 3.8223 7.94 4.39999C7.97039 4.59881 7.99042 4.79908 8 4.99999H2ZM32 31.84C32.0003 32.0099 31.9574 32.1772 31.8751 32.3259C31.7929 32.4746 31.6741 32.5999 31.53 32.69C31.1547 32.9369 30.8032 33.2181 30.48 33.53C29.98 33.98 29.94 34 29.66 34C29.38 34 29.34 34 28.85 33.53C28.3988 33.0556 27.8559 32.6778 27.2542 32.4197C26.6526 32.1616 26.0047 32.0285 25.35 32.0285C24.6953 32.0285 24.0474 32.1616 23.4458 32.4197C22.8441 32.6778 22.3012 33.0556 21.85 33.53C21.36 33.98 21.31 34 21.04 34C20.77 34 20.73 34 20.24 33.53C19.3715 32.6117 18.1823 32.0637 16.92 32C17.5283 30.9472 17.8885 29.7695 17.9734 28.5566C18.0584 27.3436 17.8657 26.1273 17.41 25H29C29.2652 25 29.5196 24.8946 29.7071 24.7071C29.8946 24.5196 30 24.2652 30 24C30 23.7348 29.8946 23.4804 29.7071 23.2929C29.5196 23.1053 29.2652 23 29 23H16.46C16.3934 22.9953 16.3266 22.9953 16.26 23C15.5992 22.1821 14.7837 21.5025 13.86 21H29C29.2652 21 29.5196 20.8946 29.7071 20.7071C29.8946 20.5196 30 20.2652 30 20C30 19.7348 29.8946 19.4804 29.7071 19.2929C29.5196 19.1053 29.2652 19 29 19H13C12.7348 19 12.4804 19.1053 12.2929 19.2929C12.1054 19.4804 12 19.7348 12 20C12.0046 20.096 12.0248 20.1906 12.06 20.28C11.3889 20.0954 10.6961 20.0012 10 20V4.99999C10.0017 3.9627 9.77285 2.93799 9.33 1.99999H29C29.7956 1.99999 30.5587 2.31606 31.1213 2.87867C31.6839 3.44128 32 4.20434 32 4.99999V31.84Z" fill="#939598"/>
<path d="M29 6H23C22.7348 6 22.4804 6.10536 22.2929 6.29289C22.1054 6.48043 22 6.73478 22 7C22 7.26522 22.1054 7.51957 22.2929 7.70711C22.4804 7.89464 22.7348 8 23 8H29C29.2652 8 29.5196 7.89464 29.7071 7.70711C29.8946 7.51957 30 7.26522 30 7C30 6.73478 29.8946 6.48043 29.7071 6.29289C29.5196 6.10536 29.2652 6 29 6Z" fill="#939598"/>
<path d="M29 10H23C22.7348 10 22.4804 10.1054 22.2929 10.2929C22.1054 10.4804 22 10.7348 22 11C22 11.2652 22.1054 11.5196 22.2929 11.7071C22.4804 11.8946 22.7348 12 23 12H29C29.2652 12 29.5196 11.8946 29.7071 11.7071C29.8946 11.5196 30 11.2652 30 11C30 10.7348 29.8946 10.4804 29.7071 10.2929C29.5196 10.1054 29.2652 10 29 10Z" fill="#939598"/>
<path d="M29 14H23C22.7348 14 22.4804 14.1054 22.2929 14.2929C22.1054 14.4804 22 14.7348 22 15C22 15.2652 22.1054 15.5196 22.2929 15.7071C22.4804 15.8946 22.7348 16 23 16H29C29.2652 16 29.5196 15.8946 29.7071 15.7071C29.8946 15.5196 30 15.2652 30 15C30 14.7348 29.8946 14.4804 29.7071 14.2929C29.5196 14.1054 29.2652 14 29 14Z" fill="#939598"/>
<path d="M18 6H14C13.4696 6 12.9609 6.21071 12.5858 6.58579C12.2107 6.96086 12 7.46957 12 8V14C12 14.5304 12.2107 15.0391 12.5858 15.4142C12.9609 15.7893 13.4696 16 14 16H18C18.5304 16 19.0391 15.7893 19.4142 15.4142C19.7893 15.0391 20 14.5304 20 14V8C20 7.46957 19.7893 6.96086 19.4142 6.58579C19.0391 6.21071 18.5304 6 18 6ZM18 14H14V8H18V14Z" fill="#939598"/>
<path d="M10 36C14.4183 36 18 32.4183 18 28C18 23.5817 14.4183 20 10 20C5.58172 20 2 23.5817 2 28C2 32.4183 5.58172 36 10 36Z" fill="#00A651"/>
<path d="M12.5 27H11V25.5C11 25.2348 10.8946 24.9804 10.7071 24.7929C10.5196 24.6054 10.2652 24.5 10 24.5C9.73478 24.5 9.48043 24.6054 9.29289 24.7929C9.10536 24.9804 9 25.2348 9 25.5V27H7.5C7.23478 27 6.98043 27.1054 6.79289 27.2929C6.60536 27.4804 6.5 27.7348 6.5 28C6.5 28.2652 6.60536 28.5196 6.79289 28.7071C6.98043 28.8946 7.23478 29 7.5 29H9V30.5C9 30.7652 9.10536 31.0196 9.29289 31.2071C9.48043 31.3946 9.73478 31.5 10 31.5C10.2652 31.5 10.5196 31.3946 10.7071 31.2071C10.8946 31.0196 11 30.7652 11 30.5V29H12.5C12.7652 29 13.0196 28.8946 13.2071 28.7071C13.3946 28.5196 13.5 28.2652 13.5 28C13.5 27.7348 13.3946 27.4804 13.2071 27.2929C13.0196 27.1054 12.7652 27 12.5 27Z" fill="white"/>
</svg>
