<svg width="22" height="16" viewBox="0 0 22 16" fill="none" xmlns="http://www.w3.org/2000/svg">
<path fill-rule="evenodd" clip-rule="evenodd" d="M16.6593 9.56254C16.6812 9.70911 16.787 9.76483 16.901 9.80254C17.7436 10.0807 17.9523 10.7955 18.0273 11.5837C18.0762 12.0967 17.87 12.2638 17.3883 12.1897C17.1993 12.161 16.9919 12.1391 16.814 12.1897C15.2913 12.6213 13.7279 12.2587 12.1863 12.2784C10.1347 12.3045 8.66344 11.0694 7.45015 9.43526C6.96501 8.78169 6.47172 8.2524 5.60772 8.43454C5.40244 8.47783 5.13201 8.46154 5.10244 8.1594C5.06858 7.81097 5.36687 7.84011 5.5863 7.78911C6.58487 7.55469 7.25001 8.10926 7.82044 8.88797C8.58972 9.93626 9.4593 10.8508 10.6606 11.3441C11.0133 11.489 11.375 11.5897 11.7432 11.5914C13.4407 11.6 15.1559 11.9398 16.8312 11.5121C17.0082 11.4671 17.3133 11.636 17.3262 11.2785C17.336 10.9837 17.2434 10.703 16.9584 10.5543C16.4386 10.2838 15.8819 10.1775 15.3166 10.1411C14.8649 10.112 14.4243 10.037 14.0077 9.83426C12.8759 9.28397 12.5913 8.01026 13.3863 7.06183C14.5156 5.71526 17.1474 5.7204 18.3419 7.07169C18.6466 7.41711 18.7014 7.85812 18.7242 8.27769C18.7413 8.59483 18.8416 8.71097 19.121 8.75254C19.5114 8.81254 19.862 9.00197 20.2152 9.19183C21.4357 9.84883 21.8034 10.9995 21.8292 12.275C21.8523 13.4411 21.2502 14.2143 20.2606 14.7247C18.9063 15.4241 17.5996 15.6371 16.2809 14.5305C15.8814 14.1963 15.6136 13.7711 15.4117 13.2928C15.3376 13.1184 15.2844 12.9195 15.4773 12.8047C15.6963 12.6735 15.8274 12.8313 15.9504 13.0173C17.2233 14.9458 19.0134 15.206 20.6369 13.6918C21.0967 13.2628 21.2643 12.6783 21.2034 12.0435C21.0114 10.0383 19.175 8.80183 17.3729 9.44469C17.1397 9.5274 16.9203 9.67611 16.6494 9.58354C16.4262 9.28097 16.5637 9.09711 16.826 8.96554C17.1564 8.80011 17.5074 8.70026 17.8739 8.64969C17.9943 8.63383 18.1936 8.67026 18.155 8.45254C18.0942 8.11526 18.0852 7.75311 17.8452 7.47283C16.9079 6.37526 14.5692 6.46611 13.7682 7.62969C13.415 8.14397 13.469 8.7174 13.9906 9.06326C14.8147 9.61054 15.7469 9.55997 16.6593 9.56254Z" fill="black"/>
<path fill-rule="evenodd" clip-rule="evenodd" d="M3.82786 1.02499C3.26686 0.964131 2.70329 0.930274 2.14271 0.888702C1.98929 0.877131 1.84014 0.898131 1.68886 0.810274C1.20929 0.531274 1.06486 0.612702 1.06871 1.20413C1.07429 2.41013 0.880572 3.59085 0.812 4.78442C0.739572 6.04956 0.481571 7.2997 0.663714 8.59742C0.74 9.1357 0.992 9.16999 1.331 9.07656C1.93229 8.91413 2.51943 9.00499 3.11386 9.13656C3.97057 9.3247 4.18829 9.21156 4.16214 8.3287C4.09914 6.14085 4.30057 3.98642 4.57957 1.83756C4.59286 1.73942 4.58429 1.6357 4.58643 1.52899C4.42143 1.20542 4.145 1.05927 3.82786 1.02499ZM3.74771 3.3427C3.67529 4.86285 3.416 6.36585 3.569 7.90699C3.61743 8.40542 3.54243 8.48942 3.37614 8.52327C3.10657 8.47485 2.83529 8.4367 2.56871 8.37413C2.27814 8.30599 1.98543 8.26227 1.706 8.3587C1.18571 8.53613 1.14414 8.28842 1.18657 7.82427C1.36486 5.88499 1.52686 3.94356 1.66529 1.99999C1.69186 1.62627 1.808 1.49942 2.15129 1.53799C2.71186 1.5997 3.42071 1.44113 3.79571 1.74799C4.20457 2.08313 3.77429 2.79327 3.74771 3.3427Z" fill="black"/>
<path fill-rule="evenodd" clip-rule="evenodd" d="M20.492 6.16445C20.6814 6.96417 20.5666 7.78617 20.6887 8.59702C20.7114 8.74531 20.6073 8.86788 20.45 8.88288C20.2893 8.89745 20.2023 8.77702 20.138 8.64288C19.9704 8.29488 19.9623 7.91474 20.0073 7.55945C20.1221 6.65474 19.7446 6.14302 18.9611 5.76417C18.0839 5.33988 17.3956 4.58559 16.6246 3.97831C15.9247 3.42759 15.2103 3.17388 14.345 3.20045C11.519 3.28617 8.69043 3.31531 5.86186 3.36545C5.80314 3.36674 5.74529 3.36759 5.68743 3.36717C5.44529 3.36502 5.246 3.27845 5.25286 2.98788C5.25929 2.71617 5.48 2.68702 5.67714 2.69945C6.59129 2.75645 7.49986 2.71831 8.41057 2.69259C10.4819 2.63259 12.5549 2.60817 14.627 2.54302C15.3826 2.51859 16.0619 2.74831 16.6619 3.20988C17.8216 4.10217 18.9144 5.09431 20.1984 5.79245C20.3429 5.87045 20.4607 5.97974 20.492 6.16445Z" fill="black"/>
<path fill-rule="evenodd" clip-rule="evenodd" d="M3.20302 2.98566C3.27245 3.38809 3.23216 3.78709 3.06545 4.14837C3.00673 4.27566 2.83402 4.3138 2.71488 4.1968C2.47873 3.96537 2.55759 3.67352 2.59616 3.40009C2.63002 3.16823 2.63045 2.9098 2.88759 2.79795C3.04059 2.76795 3.17645 2.83137 3.20302 2.98566Z" fill="black"/>
</svg>
