<svg width="39" height="39" viewBox="0 0 39 39" fill="none" xmlns="http://www.w3.org/2000/svg">
<path d="M29 0H10C4.47715 0 0 4.47715 0 10V29C0 34.5228 4.47715 39 10 39H29C34.5228 39 39 34.5228 39 29V10C39 4.47715 34.5228 0 29 0Z" fill="#B2FBD1"/>
<rect x="9" y="12" width="10" height="14" rx="1" fill="#099042"/>
<rect x="20" y="13" width="10" height="14" rx="1" fill="#099042" fill-opacity="0.5"/>
<path d="M12.3182 21.8182L12.75 20.4915H14.8494L15.2812 21.8182H16.5994L14.5938 16H13.0085L11 21.8182H12.3182ZM13.0625 19.5312L13.7784 17.3295H13.8239L14.5398 19.5312H13.0625Z" fill="white"/>
<path d="M26.864 20.072V19.064H25.968C25.464 19.064 25.176 18.888 25.176 18.488C25.176 18.104 25.528 18.048 25.632 18.048C25.768 18.048 26.016 18.064 26.24 18.384L26.832 17.624C26.464 17.176 26.024 17 25.536 17C24.864 17 24.056 17.416 24.056 18.36C24.056 18.704 24.168 18.944 24.264 19.096C23.448 19.272 23 20.048 23 20.808C23 21.728 23.784 22.48 24.76 22.48H26.136V21.48C26.136 21.48 25.44 21.48 24.816 21.48C24.472 21.48 24.088 21.208 24.088 20.776C24.088 20.344 24.344 20.072 24.84 20.072H26.864Z" fill="white"/>
</svg>
