<svg width="18" height="18" viewBox="0 0 18 18" fill="none" xmlns="http://www.w3.org/2000/svg">
<path d="M8.9625 17.925C4.0125 17.925 0 13.9125 0 8.9625C0 4.0125 4.0125 0 8.9625 0C13.9125 0 17.925 4.0125 17.925 8.9625C17.925 13.9125 13.9125 17.925 8.9625 17.925ZM8.9625 0.975002C4.575 0.975002 0.975002 4.575 0.975002 8.9625C0.975002 13.35 4.575 16.95 8.9625 16.95C13.35 16.95 16.95 13.35 16.95 8.9625C16.95 4.575 13.35 0.975002 8.9625 0.975002Z" fill="black"/>
<path d="M3.7125 15.4499L2.8125 15.0374C3.075 14.3999 3.9 14.0624 4.8375 13.6499C5.7375 13.2374 6.8625 12.7499 6.8625 12.1499V11.3249C6.525 11.0624 6 10.4624 5.925 9.59994C5.6625 9.33744 5.25 8.84994 5.25 8.24994C5.25 7.87494 5.4 7.57494 5.5125 7.38744C5.4375 6.97494 5.2875 6.14994 5.2875 5.51244C5.2875 3.44994 6.7125 2.09995 8.9625 2.09995C9.6 2.09995 10.3875 2.28744 10.8 2.73744C11.8125 2.92494 12.6375 4.12494 12.6375 5.51244C12.6375 6.41244 12.4875 7.16244 12.375 7.49994C12.4875 7.68744 12.6 7.94994 12.6 8.24994C12.6 8.96244 12.2625 9.41244 11.925 9.63744C11.85 10.4999 11.3625 11.0624 11.0625 11.3249V12.1499C11.0625 12.6749 12 13.0124 12.8625 13.3499C13.875 13.7249 14.925 14.0999 15.2625 14.9624L14.325 15.2999C14.175 14.8499 13.275 14.5499 12.525 14.2499C11.3625 13.8374 10.05 13.3499 10.05 12.1499V10.7999L10.275 10.6499C10.3125 10.6499 10.95 10.1999 10.95 9.33744V8.99994L11.25 8.88744C11.2875 8.84994 11.5875 8.69994 11.5875 8.24994C11.5875 8.09994 11.475 7.94994 11.4375 7.91244L11.25 7.68744L11.325 7.42494C11.325 7.42494 11.5875 6.59994 11.5875 5.47494C11.5875 4.53744 11.0625 3.67494 10.5 3.67494H10.2L10.05 3.41245C9.9375 3.22495 9.4875 3.03745 8.8875 3.03745C7.2 3.03745 6.1875 3.93744 6.1875 5.47494C6.1875 6.18744 6.45 7.34994 6.45 7.34994L6.525 7.61244L6.3375 7.79994C6.3375 7.79994 6.1875 7.98744 6.1875 8.17494C6.1875 8.43744 6.525 8.77494 6.675 8.92494L6.8625 9.07494V9.33744C6.8625 10.1624 7.575 10.6124 7.575 10.6124L7.8 10.7624V12.1124C7.8 13.3499 6.4125 13.9874 5.175 14.5124C4.65 14.8124 3.8625 15.1874 3.7125 15.4499Z" fill="black"/>
</svg>
