<svg width="32" height="36" viewBox="0 0 32 36" fill="none" xmlns="http://www.w3.org/2000/svg">
<g filter="url(#filter0_d_4_3775)">
<path d="M16.0001 4.56806C9.69605 4.56806 4.56812 9.69669 4.56812 16.0004C4.56812 22.3041 9.69605 27.4319 16.0001 27.4319C22.3037 27.4319 27.432 22.3041 27.432 16.0004C27.432 9.69669 22.3038 4.56806 16.0001 4.56806ZM16.0001 25.6287C10.6906 25.6287 6.3713 21.3094 6.3713 16.0003C6.3713 10.6906 10.6906 6.37125 16.0001 6.37125C21.3095 6.37125 25.6288 10.6906 25.6288 16.0003C25.6288 21.3094 21.3095 25.6287 16.0001 25.6287Z" fill="black"/>
<path d="M14.1923 13.7599C14.1923 13.0366 15.2501 12.9131 16.1677 12.9131C17.0325 12.9131 18.2142 13.3184 19.2022 13.8307L19.3959 11.8372C18.9017 11.5547 17.7554 11.2195 16.591 11.1494L16.8732 9.12062H14.9857L15.2682 11.1494C12.834 11.3784 12.04 12.7896 12.04 13.9716C12.04 16.9526 17.5962 16.3183 17.5962 18.1521C17.5962 18.8406 16.9441 19.087 15.7971 19.087C14.2451 19.087 13.0804 18.5408 12.4811 17.9758L12.1809 20.2163C12.7459 20.5516 13.8919 20.8514 15.2682 20.9222L14.9857 22.8803H16.8732L16.591 20.9042C19.4487 20.6571 19.9602 19.1398 19.9602 18.1348C19.9602 14.5893 14.1923 15.4708 14.1923 13.7599Z" fill="black"/>
<line x1="9.39468" y1="6.69303" x2="23.3947" y2="24.693" stroke="black"/>
</g>
<defs>
<filter id="filter0_d_4_3775" x="-4" y="0" width="40" height="40" filterUnits="userSpaceOnUse" color-interpolation-filters="sRGB">
<feFlood flood-opacity="0" result="BackgroundImageFix"/>
<feColorMatrix in="SourceAlpha" type="matrix" values="0 0 0 0 0 0 0 0 0 0 0 0 0 0 0 0 0 0 127 0" result="hardAlpha"/>
<feOffset dy="4"/>
<feGaussianBlur stdDeviation="2"/>
<feComposite in2="hardAlpha" operator="out"/>
<feColorMatrix type="matrix" values="0 0 0 0 0 0 0 0 0 0 0 0 0 0 0 0 0 0 0.25 0"/>
<feBlend mode="normal" in2="BackgroundImageFix" result="effect1_dropShadow_4_3775"/>
<feBlend mode="normal" in="SourceGraphic" in2="effect1_dropShadow_4_3775" result="shape"/>
</filter>
</defs>
</svg>
