<svg width="16" height="16" viewBox="0 0 16 16" fill="none" xmlns="http://www.w3.org/2000/svg">
<path d="M13.2144 0H2.7856L0 4.4568V16H16V4.4568L13.2144 0ZM15.2523 4.26667H8.26667V0.533333H12.9189L15.2523 4.26667ZM3.08107 0.533333H7.73333V4.26667H0.747733L3.08107 0.533333ZM0.533333 15.4667V4.8H15.4667V15.4667H0.533333Z" fill="black"/>
<path d="M9.6001 6.13333H6.4001C5.95903 6.13333 5.6001 6.49226 5.6001 6.93333C5.6001 7.3744 5.95903 7.73333 6.4001 7.73333H9.6001C10.0412 7.73333 10.4001 7.3744 10.4001 6.93333C10.4001 6.49226 10.0412 6.13333 9.6001 6.13333ZM9.6001 7.2H6.4001C6.25316 7.2 6.13343 7.08053 6.13343 6.93333C6.13343 6.78613 6.25316 6.66666 6.4001 6.66666H9.6001C9.74703 6.66666 9.86676 6.78613 9.86676 6.93333C9.86676 7.08053 9.74703 7.2 9.6001 7.2Z" fill="black"/>
<path d="M10.1334 13.8667H5.86676C5.71956 13.8667 5.6001 13.9859 5.6001 14.1333C5.6001 14.2808 5.71956 14.4 5.86676 14.4H10.1334C10.2806 14.4 10.4001 14.2808 10.4001 14.1333C10.4001 13.9859 10.2806 13.8667 10.1334 13.8667Z" fill="black"/>
<path d="M6.66659 13.3332C6.81379 13.3332 6.93325 13.214 6.93325 13.0666V11.3103L7.27805 11.6551C7.33005 11.7071 7.39832 11.7332 7.46659 11.7332C7.53485 11.7332 7.60312 11.7071 7.65512 11.6551C7.75939 11.5508 7.75939 11.3823 7.65512 11.278L6.85539 10.4783C6.83085 10.4535 6.80125 10.434 6.76845 10.4204C6.70339 10.3935 6.62979 10.3935 6.56472 10.4204C6.53192 10.434 6.50259 10.4535 6.47779 10.4783L5.67805 11.278C5.57379 11.3823 5.57379 11.5508 5.67805 11.6551C5.73005 11.7071 5.79832 11.7332 5.86659 11.7332C5.93485 11.7332 6.00312 11.7071 6.05512 11.6551L6.39992 11.3103V13.0666C6.39992 13.214 6.51939 13.3332 6.66659 13.3332Z" fill="black"/>
<path d="M9.52214 10.4783C9.4976 10.4535 9.468 10.434 9.4352 10.4204C9.37014 10.3935 9.29654 10.3935 9.23147 10.4204C9.19867 10.434 9.16934 10.4535 9.14454 10.4783L8.3448 11.278C8.24053 11.3823 8.24053 11.5508 8.3448 11.6551C8.3968 11.7071 8.46507 11.7332 8.53334 11.7332C8.6016 11.7332 8.66987 11.7071 8.72187 11.6551L9.06667 11.3103V13.0666C9.06667 13.214 9.18614 13.3332 9.33334 13.3332C9.48054 13.3332 9.6 13.214 9.6 13.0666V11.3103L9.9448 11.6551C9.9968 11.7071 10.0651 11.7332 10.1333 11.7332C10.2016 11.7332 10.2699 11.7071 10.3219 11.6551C10.4261 11.5508 10.4261 11.3823 10.3219 11.278L9.52214 10.4783Z" fill="black"/>
</svg>
